<?xml version="1.0" encoding="UTF-8"?>
<svg width="540px" height="135px" viewBox="0 0 540 135" version="1.1" xmlns="http://www.w3.org/2000/svg" xmlns:xlink="http://www.w3.org/1999/xlink">
    <title>Artboard</title>
    <g id="Artboard" stroke="none" stroke-width="1" fill="none" fill-rule="evenodd">
        <g id="logo" fill="#000000" fill-rule="nonzero">
            <path d="M0,0 L0,135 L540,135 L540,0 L0,0 Z M172.5,61.536 L226.5,61.536 L226.5,81.576 L172.5,81.576 L172.5,61.536 Z M470.133,39.7575 C470.133,41.3415 469.782,42.8775 469.089,44.3625 C468.396,45.8475 467.502,47.1825 466.413,48.3675 C465.327,49.5585 464.037,50.5005 462.552,51.1875 C461.073,51.8835 459.483,52.2285 457.803,52.2285 C456.018,52.2285 454.359,51.9075 452.829,51.2685 C451.287,50.6235 449.952,49.7325 448.815,48.5925 C447.678,47.4555 446.76,46.1205 446.067,44.5845 C445.377,43.0515 445.026,41.4435 445.026,39.7575 C445.026,36.1935 446.289,33.1995 448.815,30.7725 C451.341,28.3485 454.284,27.1335 457.65,27.1335 C459.336,27.1335 460.92,27.4545 462.408,28.0995 C463.89,28.7475 465.204,29.6355 466.341,30.7725 C467.478,31.9155 468.399,33.2505 469.089,34.7835 C469.779,36.3165 470.133,37.9755 470.133,39.7575 Z M366.042,97.8705 L353.994,109.9245 L328.617,84.3945 L303.093,109.9245 L291.039,97.8705 L316.569,72.4995 L291.357,47.1285 L303.411,35.0745 L328.617,60.4455 L353.994,35.0745 L366.042,47.1285 L340.515,72.4995 L366.042,97.8705 Z M107.961,78.441 L78.402,78.441 L78.402,108 L62.508,108 L62.508,78.441 L32.958,78.441 L32.958,62.556 L62.508,62.556 L62.508,33 L78.402,33 L78.402,62.556 L107.961,62.556 L107.961,78.441 Z M469.089,105.8445 C468.399,107.3325 467.502,108.6675 466.413,109.8585 C465.327,111.0465 464.037,112.0095 462.552,112.7535 C461.073,113.4975 459.483,113.8665 457.803,113.8665 C456.018,113.8665 454.359,113.5215 452.829,112.8255 C451.287,112.1385 449.952,111.2175 448.815,110.0805 C447.678,108.9405 446.76,107.6025 446.067,106.0695 C445.377,104.5335 445.026,102.9765 445.026,101.3925 C445.026,99.6105 445.374,97.9785 446.067,96.4905 C446.76,95.0025 447.678,93.6915 448.815,92.5575 C449.952,91.4205 451.287,90.5265 452.829,89.8785 C454.359,89.2395 455.97,88.9185 457.65,88.9185 C459.336,88.9185 460.92,89.2395 462.408,89.8785 C463.89,90.5265 465.204,91.4205 466.341,92.5575 C467.478,93.6915 468.399,95.0025 469.089,96.4905 C469.779,97.9785 470.133,99.6105 470.133,101.3925 C470.133,102.8775 469.779,104.3655 469.089,105.8445 Z M495.081,78.5175 L420.081,78.5175 L420.081,62.6325 L495.081,62.6325 L495.081,78.5175 Z" id="Shape"></path>
        </g>
    </g>
</svg>