<?xml version="1.0" encoding="UTF-8"?>
<svg width="128px" height="128px" viewBox="0 0 128 128" version="1.1" xmlns="http://www.w3.org/2000/svg" xmlns:xlink="http://www.w3.org/1999/xlink">
    <title>favicon</title>
    <g id="favicon" stroke="none" stroke-width="1" fill="none" fill-rule="evenodd">
        <rect fill="#FFFFFF" x="0" y="0" width="128" height="128"></rect>
        <g id="svelte" transform="translate(17.000000, 7.500000)" fill-rule="nonzero">
            <path d="M87.73,15.39 C77.33,0.51 56.79,-3.9 41.94,5.56 L15.86,22.18 C8.74270634,26.6501827 3.83544382,33.9094468 2.34,42.18 C1.09286347,49.0836655 2.18374754,56.2060828 5.44,62.42 C3.20829514,65.8055204 1.68754858,69.6090879 0.97,73.6 C-0.534787815,82.0458501 1.43006069,90.7416567 6.42,97.72 C16.82,112.6 37.36,117.01 52.21,107.55 L78.29,91 C85.3985134,86.5207433 90.3028635,79.2657875 91.81,71 C93.0525602,64.0984596 91.9581683,56.979634 88.7,50.77 C90.9305561,47.3828297 92.4543286,43.5802011 93.18,39.59 C94.6801689,31.1442566 92.7157233,22.450233 87.73,15.47" id="back" fill="#FF3E00"></path>
            <path d="M38.89,99.16 C30.4803097,101.342258 21.6020057,98.048822 16.65,90.91 C13.6510846,86.7145708 12.4720627,81.4864918 13.38,76.41 C13.5275139,75.5925991 13.7347356,74.7871083 14,74 L14.49,72.5 L15.83,73.5 C18.9100748,75.748641 22.3486813,77.4594915 26,78.56 L27,78.85 L26.91,79.85 C26.8137839,81.2211211 27.1993012,82.5828106 28,83.7 C29.4941898,85.8474345 32.1677342,86.837045 34.7,86.18 C35.2653542,86.0280386 35.8046962,85.7920765 36.3,85.48 L62.34,68.86 C63.6332361,68.0462482 64.5229193,66.7244333 64.79,65.22 C65.0592944,63.6880909 64.6987112,62.1123426 63.79,60.85 C62.2958102,58.7025655 59.6222658,57.712955 57.09,58.37 C56.5239802,58.5200594 55.9843587,58.7561438 55.49,59.07 L45.49,65.42 C43.8544786,66.4570439 42.0707515,67.2393212 40.2,67.74 C31.8048243,69.9089923 22.9469258,66.6211957 18,59.5 C15.0101878,55.3006676 13.8386338,50.0737345 14.75,45 C15.642913,40.0153564 18.5942156,35.6374094 22.88,32.94 L49,16.32 C50.625878,15.2850354 52.3994016,14.5027968 54.26,14 C62.6668699,11.8162213 71.5432186,15.1104128 76.49,22.25 C79.4924124,26.4439474 80.6750687,31.6721534 79.77,36.75 C79.6139886,37.5720875 79.406921,38.3836589 79.15,39.18 L78.65,40.68 L77.32,39.68 C74.2335991,37.4142268 70.7844592,35.6896568 67.12,34.58 L66.12,34.29 L66.21,33.29 C66.3254924,31.9121132 65.9500277,30.5377705 65.15,29.41 C63.6469526,27.300154 60.9951444,26.3405657 58.49,27 C57.9239802,27.1500594 57.3843587,27.3861438 56.89,27.7 L30.8,44.29 C29.5117142,45.1042223 28.6232043,46.4206676 28.35,47.92 C28.0859415,49.4549349 28.4459466,51.0317573 29.35,52.3 C30.8367772,54.4271629 33.4834272,55.4141843 36,54.78 C36.564619,54.6259498 37.1036611,54.3901188 37.6,54.08 L47.6,47.74 C49.2342992,46.6916023 51.0226012,45.9054242 52.9,45.41 C61.3048801,43.2210821 70.1824323,46.5117268 75.13,53.65 C78.1303007,57.844895 79.3127548,63.072207 78.41,68.15 C77.517087,73.1346436 74.5657844,77.5125906 70.28,80.21 L44.19,96.83 C42.5514053,97.8703659 40.7643848,98.6559806 38.89,99.16" id="front" fill="#FFFFFF"></path>
        </g>
    </g>
</svg>