<svg height='300px' width='300px' fill="#000000" 
  xmlns="http://www.w3.org/2000/svg" 
  xmlns:xlink="http://www.w3.org/1999/xlink" version="1.1" x="0px" y="0px" viewBox="0 0 100 88.894" enable-background="new 0 0 100 88.894" xml:space="preserve">
  <path d="M98.63,11.455c-1.051-1.553-3.611-3.985-8.936-2.836c-1.979,0.424-4.541,2.77-12.261,11.273  c-0.477-0.917-1.13-1.758-1.926-2.465c-1.398-1.243-3.191-2.057-4.996-2.291c0-0.001,0-0.002,0-0.005  c0.103-2.931-1.422-5.88-3.968-7.699c-2.197-1.567-4.816-2.05-7.276-1.369c-0.452-1.572-1.261-2.973-2.219-3.827  c-1.398-1.242-4.943-2.757-8.12-2.061c-0.7,0.153-1.4,0.452-2.083,0.889C43.95,2.924,34.569,14.219,33.391,16.076  c-0.528,0.831-0.872,1.636-1.05,2.461c-0.035,0.168-0.061,0.345-0.08,0.527l-2.724-2.822c-1.756-1.804-3.29-3.386-4.467-4.646  c-0.621-0.666-1.136-1.237-1.569-1.721C23.5,9.872,23.42,9.783,23.42,9.783c-0.686-0.762-1.333-1.481-2.133-2.291  c-3.208-3.25-7.926-4.979-12.312-4.511C5.381,3.363,2.362,5.209,0.476,8.178c-0.374,0.586-0.534,1.289-0.457,2.032l-0.003-0.082  c-0.033,0.761,0.197,1.502,0.646,2.085c2.846,3.689,12.677,16.409,19.707,25.21c0.718,0.898,1.482,1.723,2.222,2.52  c0.287,0.31,0.558,0.609,0.818,0.898c-0.303,1.254-0.068,2.685,0.135,3.793c-0.889,0.963-1.888,2.01-3.207,3.365  c-7.838,8.049-17.591,18.061-8.871,29.036c1.678,2.11,10.505,8.995,12.623,10.16c3.872,2.126,7.741,2.254,12.178,0.394  c1.863-0.778,4.383-3.477,11.116-10.985c3.792-4.231,10.855-12.11,12.576-12.833c0.73-0.309,1.325-0.882,1.666-1.599  c0.659-0.157,1.23-0.34,1.765-0.564c2.784-1.168,6.084-3.949,8.361-6.076c3.709-3.468,5.302-6.077,6.55-10.734  c0.021-0.086,0.041-0.169,0.059-0.251c0.648-0.202,1.211-0.598,1.612-1.146c2.607-3.558,10.236-11.78,14.332-16.197  c2.944-3.17,3.275-3.537,3.529-3.914C100.019,20.057,100.993,14.956,98.63,11.455z M77.271,41.203  c-0.06-0.114-0.033-0.512-0.021-0.711c0.025-0.375,0.048-0.729-0.07-0.998l-0.133-0.295l-0.283,0.156  c-1.278,0.706-1.463,2.131-1.627,3.389c-0.058,0.42-0.106,0.817-0.195,1.151c-1.067,3.978-2.367,6.104-5.566,9.093  c-1.693,1.584-4.896,4.392-7.334,5.414c-0.935,0.392-2.048,0.575-3.123,0.75c-1.451,0.238-2.949,0.483-4.159,1.246l-0.263,0.165  l0.177,0.256c0.47,0.68,1.534,0.527,2.562,0.382c0.124-0.017,0.248-0.033,0.37-0.049c-2.809,1.972-7.883,7.632-12.812,13.13  c-4.403,4.912-8.563,9.552-9.869,10.099c-3.426,1.435-6.25,1.362-9.158-0.235c-1.907-1.047-10.324-7.701-11.575-9.274  c-6.813-8.576,1.042-16.643,8.639-24.441c1.546-1.587,3.004-3.086,4.332-4.584l0.09-0.1l-0.017-0.133  c-0.059-0.458-0.153-0.967-0.243-1.458c-0.085-0.463-0.201-1.098-0.255-1.61c1.408,3.862,4.948,6.95,9.311,8.013  c4.375,1.067,8.611-0.125,11.331-3.188l0.346-0.389l-0.509-0.102c-1.277-0.255-2.223,0.45-3.136,1.133  c-0.591,0.443-1.202,0.9-1.904,1.096c-3.35,0.938-7.753-0.143-9.914-1.681c-2.185-1.559-4.231-3.406-4.405-6.363l-0.003-0.06  l-0.028-0.055c-0.497-1.01-1.558-2.155-2.682-3.369c-0.698-0.753-1.42-1.533-2.057-2.33C16.222,26.655,6.699,14.341,3.624,10.355  c0.111-0.136,0.099-0.288,0.094-0.332C3.704,9.933,3.654,9.853,3.591,9.782c1.67-2.42,4.033-3.158,5.752-3.342  c3.307-0.352,7.023,1.02,9.467,3.496c0.771,0.782,1.385,1.465,2.096,2.256c0.492,0.546,1,1.113,1.62,1.778  c1.243,1.331,2.901,3.038,4.505,4.687c1.86,1.913,3.784,3.891,4.976,5.205l0.018,0.02l0.02,0.016  c0.269,0.209,0.549,0.29,0.833,0.241c0.614-0.11,1.049-0.803,1.436-1.417c0.062-0.1,0.124-0.197,0.183-0.286  c0.428,0.41,0.83,0.866,1.219,1.313c1.443,1.66,2.932,3.372,6.122,3.159c-0.979,1.531-1.135,3.336-0.43,5.156  c0.993,2.557,3.538,4.69,6.049,5.07c1.516,0.23,2.88-0.21,3.898-1.235c0.823,2.582,2.616,4.905,4.773,6.147  c1.494,0.859,3.049,1.128,4.386,0.761c1.322-0.365,6.109-5.638,13.832-14.276c6.771-7.574,14.446-16.159,16.083-16.51  c2.503-0.539,4.342-0.06,5.318,1.387c1.43,2.115,0.72,5.696-0.795,7.934c-0.128,0.19-1.548,1.719-3.188,3.488  C87.377,29.556,80.076,37.423,77.271,41.203z M54.737,4.837c1.252,1.114,1.988,4.407,0.971,5.552  c-0.973,0.956-4.751,5.586-7.785,9.306c-2.009,2.461-3.906,4.789-4.171,5.036c-0.467,0.44-0.894,0.67-1.381,0.746  c-1.456,0.225-3.475-0.73-5.025-2.376c-1.239-1.315-1.838-2.745-1.605-3.824c0.092-0.42,0.285-0.859,0.59-1.336  c1.004-1.585,10.2-12.538,12.392-13.944c0.334-0.214,0.654-0.355,0.952-0.42C51.727,3.125,54.129,4.296,54.737,4.837z   M64.523,10.265c1.585,1.131,2.569,2.993,2.511,4.743c-0.014,0.406-0.138,0.83-0.372,1.292c-0.498,0.979-1.414,1.95-2.379,2.976  c-0.368,0.389-0.746,0.792-1.101,1.194l-2.839,3.257c-3.666,4.217-7.127,8.202-10.885,11.783c-1.819,0.115-3.952-0.702-5.341-2.055  c-0.767-0.75-1.663-2.013-1.563-3.788c0.073-1.287,1.581-2.947,2.91-4.413c0.333-0.368,0.649-0.716,0.945-1.059  c1.663-1.931,9.738-11.212,12.03-13.788c0.319-0.361,0.747-0.641,1.308-0.855C61.308,8.953,63.049,9.214,64.523,10.265z   M73.805,25.781c-0.229,0.257-0.831,1.015-1.662,2.064c-3.001,3.784-10.029,12.647-11.869,13.232  c-1.975,0.447-4.836-1.724-6.152-3.956c-0.72-1.216-0.855-2.225-0.368-2.771l1.818-2.108c2.802-3.244,7.491-8.677,10.597-12.17  c2.03-2.282,5.136-1.727,7.027-0.044C74.787,21.443,75.591,23.77,73.805,25.781z"></path>
</svg>